<svg width="30" height="16" viewBox="0 0 30 16" fill="none" xmlns="http://www.w3.org/2000/svg">
<path d="M1.17088 6.82812H25.9887L21.8776 2.73687C21.4188 2.28031 21.4171 1.53834 21.8736 1.07961C22.3302 0.620816 23.0722 0.619117 23.531 1.07562L29.6542 7.16937C29.6546 7.16972 29.6549 7.17013 29.6553 7.17048C30.1128 7.62705 30.1143 8.37142 29.6554 8.82951C29.655 8.82986 29.6547 8.83027 29.6544 8.83062L23.5311 14.9244C23.0724 15.3808 22.3304 15.3792 21.8737 14.9204C21.4172 14.4617 21.4189 13.7197 21.8777 13.2631L25.9887 9.17187H1.17088C0.523653 9.17187 -0.000995636 8.64722 -0.000995636 8C-0.000995636 7.35277 0.523653 6.82812 1.17088 6.82812Z" fill="white"/>
</svg>
