<svg viewBox="0 0 18 29" fill="none" xmlns="http://www.w3.org/2000/svg">
<path d="M11.8898 14.5061L0.666883 3.65683C0.357859 3.35881 0.187859 2.96036 0.187859 2.5355C0.187859 2.1104 0.357859 1.71218 0.666883 1.41369L1.6503 0.463528C1.95883 0.164569 2.37127 0 2.81079 0C3.2503 0 3.66225 0.164569 3.97103 0.463528L17.3337 13.3806C17.6437 13.68 17.8135 14.0801 17.8122 14.5054C17.8135 14.9326 17.644 15.3323 17.3337 15.6319L3.98347 28.5365C3.67469 28.8354 3.26274 29 2.82298 29C2.38347 29 1.97152 28.8354 1.66249 28.5365L0.679323 27.5863C0.039566 26.9679 0.039566 25.9611 0.679323 25.3429L11.8898 14.5061Z" fill="white"/>
</svg>
