<svg viewBox="0 0 18 29" fill="none" xmlns="http://www.w3.org/2000/svg">
<path d="M6.11019 14.5061L17.3331 3.65683C17.6421 3.35881 17.8121 2.96036 17.8121 2.5355C17.8121 2.1104 17.6421 1.71218 17.3331 1.41369L16.3497 0.463528C16.0412 0.164569 15.6287 0 15.1892 0C14.7497 0 14.3378 0.164569 14.029 0.463528L0.666287 13.3806C0.356287 13.68 0.186531 14.0801 0.187751 14.5054C0.186531 14.9326 0.356043 15.3323 0.666287 15.6319L14.0165 28.5365C14.3253 28.8354 14.7373 29 15.177 29C15.6165 29 16.0285 28.8354 16.3375 28.5365L17.3207 27.5863C17.9604 26.9679 17.9604 25.9611 17.3207 25.3429L6.11019 14.5061Z" fill="white"/>
</svg>
