<svg width="13" height="11" viewBox="0 0 13 11" fill="none" xmlns="http://www.w3.org/2000/svg">
<path d="M1.34375 5.03124H10.6951L7.1143 1.62062C6.9268 1.44202 6.91953 1.1453 7.09812 0.957805C7.27648 0.770539 7.5732 0.763039 7.76094 0.941633L11.8503 4.83695C12.0273 5.01413 12.125 5.24944 12.125 5.49999C12.125 5.7503 12.0273 5.98585 11.8421 6.17077L7.7607 10.0581C7.67 10.1446 7.55375 10.1875 7.4375 10.1875C7.31375 10.1875 7.19 10.1387 7.09789 10.0419C6.9193 9.85444 6.92656 9.55796 7.11406 9.37937L10.7098 5.96874H1.34375C1.085 5.96874 0.875 5.75874 0.875 5.49999C0.875 5.24124 1.085 5.03124 1.34375 5.03124Z" fill="white"/>
</svg>
