<svg width="15" height="15" viewBox="0 0 15 15" fill="none" xmlns="http://www.w3.org/2000/svg">
<path d="M13.9752 0H1.02476C0.748934 0.000980781 0.484993 0.133059 0.292359 0.366484C0.0997236 0.599908 -0.00557609 0.915392 0.000227816 1.24166V10.1079C0.000227816 10.7941 0.444642 11.3822 1.02476 11.3822H5.28456C5.51893 11.3822 5.73119 11.5777 5.73119 11.855V15L9.46145 11.4774C9.53386 11.4107 9.62396 11.377 9.71544 11.3822H13.9752C14.5554 11.3822 14.9998 10.7944 14.9998 10.1079V1.24166C15.0056 0.915392 14.9003 0.599908 14.7076 0.366484C14.515 0.133059 14.2511 0.000980781 13.9752 0V0Z" fill="#A1A7A8"/>
</svg>
