<svg width="12" height="20" viewBox="0 0 12 20" fill="none" xmlns="http://www.w3.org/2000/svg">
<path d="M6.43124 10.0144C9.14517 10.0144 11.3512 7.80781 11.3512 5.09473C11.3512 2.38055 9.14517 0.172974 6.43124 0.172974C3.718 0.172974 1.51123 2.38041 1.51123 5.09473C1.51123 7.80781 3.718 10.0144 6.43124 10.0144ZM6.43124 3.057C7.55482 3.057 8.46834 3.97101 8.46834 5.09473C8.46834 6.21735 7.55482 7.1315 6.43124 7.1315C5.30903 7.1315 4.39413 6.21735 4.39413 5.09473C4.39413 3.97101 5.30889 3.057 6.43124 3.057Z" fill="white"/>
<path d="M8.4215 14.029C9.42316 13.8006 10.389 13.4045 11.2786 12.8455C11.9518 12.4211 12.1547 11.5307 11.7305 10.8573C11.3066 10.1825 10.4172 9.97942 9.74275 10.4039C7.72744 11.6717 5.13268 11.671 3.11861 10.4039C2.44413 9.97956 1.55475 10.1825 1.13157 10.8573C0.707298 11.5314 0.909644 12.4211 1.58302 12.8455C2.4724 13.4038 3.43834 13.8006 4.43999 14.029L1.68937 16.7803C1.12702 17.3433 1.12702 18.2561 1.68992 18.8191C1.97171 19.1003 2.34027 19.2413 2.70868 19.2413C3.07778 19.2413 3.44702 19.1004 3.72867 18.8191L6.43047 16.1155L9.13447 18.8191C9.69681 19.3821 10.6094 19.3821 11.1723 18.8191C11.7357 18.2561 11.7357 17.3427 11.1723 16.7803L8.4215 14.029Z" fill="white"/>
</svg>
