<svg width="104" height="104" viewBox="0 0 104 104" fill="none" xmlns="http://www.w3.org/2000/svg">
<path d="M70.3734 45.0738L45.7613 27.3879C43.3291 25.6433 40.2097 24.9557 37.7775 26.3569C35.3453 27.3879 33.9707 30.1639 33.9707 33.2831V70.7167C33.9707 73.8361 35.3453 76.2683 37.7775 77.6429C38.8085 77.9865 39.8659 78.3303 40.8969 78.3303C42.6417 78.3303 44.3601 77.6429 45.7611 76.2417L70.3732 58.5556C72.8055 56.811 74.1801 54.405 74.1801 51.6294C74.1801 49.2244 72.8056 46.7922 70.3734 45.0738ZM66.2228 53.3748L41.6107 71.0607C41.2671 71.0607 40.9233 71.4043 40.9233 71.4043C40.9233 71.4043 40.9233 71.0607 40.9233 70.7169V33.2835C40.9233 32.9399 40.9233 32.5961 40.9233 32.5961C41.2669 32.5961 41.2669 32.9397 41.9543 33.2835L66.5662 50.9694C66.9098 50.9694 67.2536 51.6568 67.2536 52.0004C67.2536 52.344 66.9102 53.0308 66.2228 53.3748Z" fill="white"/>
<path d="M52 0C23.2377 0 0 23.2109 0 52C0 80.7891 23.2109 104 52 104C80.7891 104 104 80.7891 104 52C104 23.2109 80.7627 0 52 0ZM52 97.0472C27.0441 97.0472 6.95263 76.9557 6.95263 51.9998C6.95263 27.0439 27.0443 6.95242 52 6.95242C76.9557 6.95242 97.0474 27.0439 97.0474 51.9998C97.0474 76.9557 76.9559 97.0472 52 97.0472Z" fill="white"/>
</svg>
