<svg width="15" height="11" viewBox="0 0 15 11" fill="none" xmlns="http://www.w3.org/2000/svg">
<path d="M7.50004 3.45458C6.37162 3.45458 5.45459 4.37162 5.45459 5.50003C5.45459 6.62845 6.37162 7.54548 7.50004 7.54548C8.62846 7.54548 9.54549 6.62845 9.54549 5.50003C9.54549 4.37162 8.62843 3.45458 7.50004 3.45458Z" fill="#A1A7A8"/>
<path d="M7.50002 0.386398C4.09091 0.386398 1.17956 2.50683 0 5.50004C1.17956 8.49321 4.09091 10.6137 7.50002 10.6137C10.9125 10.6137 13.8205 8.49321 15 5.50004C13.8205 2.50683 10.9125 0.386398 7.50002 0.386398ZM7.50002 8.90911C5.6182 8.90911 4.09091 7.38182 4.09091 5.50001C4.09091 3.61819 5.6182 2.09093 7.50002 2.09093C9.38184 2.09093 10.9091 3.61822 10.9091 5.50004C10.9091 7.38186 9.38184 8.90911 7.50002 8.90911Z" fill="#A1A7A8"/>
</svg>
