<svg width="24" height="14" viewBox="0 0 24 14" fill="none" xmlns="http://www.w3.org/2000/svg">
<path fill-rule="evenodd" clip-rule="evenodd" d="M11.8484 13.3901H13.1749C13.1749 13.3901 13.5756 13.346 13.7804 13.1255C13.9687 12.923 13.9627 12.5427 13.9627 12.5427C13.9627 12.5427 13.9368 10.7628 14.7629 10.5004C15.5775 10.2421 16.6233 12.2208 17.7317 12.9817C18.5701 13.5573 19.2069 13.4314 19.2069 13.4314L22.171 13.3899C22.171 13.3899 23.7215 13.2941 22.9863 12.0752C22.9261 11.9755 22.5581 11.1735 20.7823 9.52518C18.9236 7.80021 19.1728 8.07911 21.4116 5.09525C22.775 3.27801 23.32 2.16877 23.1498 1.69359C22.9876 1.2409 21.9845 1.36035 21.9845 1.36035L18.6473 1.38118C18.6473 1.38118 18.3998 1.34753 18.2164 1.45718C18.0371 1.56463 17.9221 1.81525 17.9221 1.81525C17.9221 1.81525 17.3936 3.22146 16.6894 4.41732C15.2033 6.94063 14.609 7.07428 14.3661 6.91746C13.8008 6.55208 13.9422 5.45056 13.9422 4.66766C13.9422 2.22187 14.3131 1.20228 13.2198 0.938422C12.8571 0.850836 12.5899 0.79318 11.6621 0.783525C10.4713 0.771525 9.46357 0.787249 8.89281 1.06697C8.51323 1.25277 8.22013 1.66711 8.39875 1.69097C8.6193 1.72008 9.11875 1.82559 9.38357 2.18601C9.72564 2.65139 9.71364 3.69621 9.71364 3.69621C9.71364 3.69621 9.9102 6.57497 9.25475 6.93249C8.80495 7.17773 8.18785 6.67704 6.86288 4.38752C6.18413 3.21497 5.67158 1.9187 5.67158 1.9187C5.67158 1.9187 5.57281 1.67635 5.39654 1.5467C5.18274 1.38959 4.88399 1.3398 4.88399 1.3398L1.71254 1.36049C1.71254 1.36049 1.23654 1.37373 1.06178 1.58104C0.906193 1.76518 1.04937 2.14587 1.04937 2.14587C1.04937 2.14587 3.53199 7.9547 6.34344 10.882C8.92123 13.5661 11.8484 13.3901 11.8484 13.3901Z" fill="white"/>
</svg>
