<svg width="20" height="15" viewBox="0 0 20 15" fill="none" xmlns="http://www.w3.org/2000/svg">
<path d="M18.9674 3.09315C18.7312 2.06736 17.892 1.31067 16.8823 1.19784C14.4905 0.930804 12.0696 0.929562 9.65943 0.930804C7.24881 0.929562 4.82771 0.930804 2.43585 1.19784C1.42592 1.31067 0.587155 2.06736 0.351293 3.09315C0.0152931 4.55425 0.0117188 6.1486 0.0117188 7.65315C0.0117188 9.15742 0.0117165 10.7519 0.347303 12.2133C0.583165 13.2389 1.42206 13.9956 2.43213 14.1085C4.82372 14.3754 7.24495 14.3769 9.65529 14.3754C12.0656 14.3769 14.4866 14.3754 16.8783 14.1082C17.8883 13.9955 18.7274 13.2389 18.9634 12.213C19.2993 10.7518 19.3014 9.15729 19.3014 7.65301C19.3014 6.1486 19.303 4.55411 18.9674 3.09315ZM7.63337 10.2825V4.93398L12.7331 7.60805L7.63337 10.2825Z" fill="white"/>
</svg>
